solid e39 floor mat holder 3D_v2_support
facet normal 0.3826834323650905 -0.9238795325112864 -2.326641319496443e-33
  outer loop
    vertex -23.199999999999992 1.2593612044262787 3.9999999999999982
    vertex -25.467100976036292 0.3202972328827596 3.0
    vertex -23.199999999999992 1.2593612044262787 3.0
  endloop
endfacet
facet normal 0.3826834323650905 -0.9238795325112864 -2.326641319496443e-33
  outer loop
    vertex -25.467100976036292 0.3202972328827596 3.0
    vertex -23.199999999999992 1.2593612044262787 3.9999999999999982
    vertex -25.467100976036292 0.3202972328827596 3.9999999999999982
  endloop
endfacet
facet normal 7.499821716739814e-33 5.624866287554862e-33 -1.0
  outer loop
    vertex -36.97970276711723 11.832899023963693 3.0
    vertex -36.97970276711723 6.967100976036303 3.0
    vertex -37.3 9.4 3.0
  endloop
endfacet
facet normal 7.499821716739814e-33 5.624866287554862e-33 -1.0
  outer loop
    vertex -36.97970276711723 6.967100976036303 3.0
    vertex -36.97970276711723 11.832899023963693 3.0
    vertex -36.04063879557372 14.099999999999996 3.0
  endloop
endfacet
facet normal 7.499821716739814e-33 5.624866287554862e-33 -1.0
  outer loop
    vertex -36.97970276711723 6.967100976036303 3.0
    vertex -36.04063879557372 14.099999999999996 3.0
    vertex -36.04063879557372 4.699999999999999 3.0
  endloop
endfacet
facet normal 7.499821716739814e-33 5.624866287554862e-33 -1.0
  outer loop
    vertex -36.04063879557372 4.699999999999999 3.0
    vertex -36.04063879557372 14.099999999999996 3.0
    vertex -34.546803743153546 16.046803743153543 3.0
  endloop
endfacet
facet normal 7.499821716739814e-33 5.624866287554862e-33 -1.0
  outer loop
    vertex -36.04063879557372 4.699999999999999 3.0
    vertex -34.546803743153546 16.046803743153543 3.0
    vertex -34.54680374315354 2.753196256846453 3.0
  endloop
endfacet
facet normal 7.499821716739814e-33 5.624866287554862e-33 -1.0
  outer loop
    vertex -34.54680374315354 2.753196256846453 3.0
    vertex -34.546803743153546 16.046803743153543 3.0
    vertex -34.26323587782583 9.380740392011738 3.0
  endloop
endfacet
facet normal 7.499821716739814e-33 5.624866287554862e-33 -1.0
  outer loop
    vertex -34.26323587782583 9.380740392011738 3.0
    vertex -34.546803743153546 16.046803743153543 3.0
    vertex -34.20657198051858 10.038293595825792 3.0
  endloop
endfacet
facet normal 7.499821716739814e-33 5.624866287554862e-33 -1.0
  outer loop
    vertex -34.20657198051858 10.038293595825792 3.0
    vertex -34.546803743153546 16.046803743153543 3.0
    vertex -32.599999999999994 17.54063879557372 3.0
  endloop
endfacet
facet normal 7.499821716739814e-33 5.624866287554862e-33 -1.0
  outer loop
    vertex -34.20657198051858 10.038293595825792 3.0
    vertex -32.599999999999994 17.54063879557372 3.0
    vertex -34.13613436042882 10.36099580036203 3.0
  endloop
endfacet
facet normal 7.499821716739814e-33 5.624866287554862e-33 -1.0
  outer loop
    vertex -34.13613436042882 10.36099580036203 3.0
    vertex -32.599999999999994 17.54063879557372 3.0
    vertex -34.03825101137442 10.67645898540012 3.0
  endloop
endfacet
facet normal 7.499821716739814e-33 5.624866287554862e-33 -1.0
  outer loop
    vertex -34.03825101137442 10.67645898540012 3.0
    vertex -32.599999999999994 17.54063879557372 3.0
    vertex -33.9136447852432 10.982353508963056 3.0
  endloop
endfacet
facet normal 7.499821716739814e-33 5.624866287554862e-33 -1.0
  outer loop
    vertex -33.9136447852432 10.982353508963056 3.0
    vertex -32.599999999999994 17.54063879557372 3.0
    vertex -33.76323587782581 11.276420392011737 3.0
  endloop
endfacet
facet normal 7.499821716739814e-33 5.624866287554862e-33 -1.0
  outer loop
    vertex -33.76323587782581 11.276420392011737 3.0
    vertex -32.599999999999994 17.54063879557372 3.0
    vertex -32.763235877825835 11.276420392011737 3.0
  endloop
endfacet
facet normal 7.499821716739814e-33 5.624866287554862e-33 -1.0
  outer loop
    vertex -32.763235877825835 11.276420392011737 3.0
    vertex -32.599999999999994 17.54063879557372 3.0
    vertex -30.06447418271847 11.276420392011737 3.0
  endloop
endfacet
facet normal 7.499821716739814e-33 5.624866287554862e-33 -1.0
  outer loop
    vertex -30.06447418271847 11.276420392011737 3.0
    vertex -32.599999999999994 17.54063879557372 3.0
    vertex -30.33289902396369 18.47970276711724 3.0
  endloop
endfacet
facet normal 7.499821716739814e-33 5.624866287554862e-33 -1.0
  outer loop
    vertex -30.06447418271847 11.276420392011737 3.0
    vertex -30.33289902396369 18.47970276711724 3.0
    vertex -27.899999999999995 18.8 3.0
  endloop
endfacet
facet normal 7.499821716739814e-33 5.624866287554862e-33 -1.0
  outer loop
    vertex -30.06447418271847 11.276420392011737 3.0
    vertex -27.899999999999995 18.8 3.0
    vertex -29.93940878785812 11.439408787858152 3.0
  endloop
endfacet
facet normal 7.499821716739814e-33 5.624866287554862e-33 -1.0
  outer loop
    vertex -29.93940878785812 11.439408787858152 3.0
    vertex -27.899999999999995 18.8 3.0
    vertex -29.34207978350592 11.897755453600194 3.0
  endloop
endfacet
facet normal 7.499821716739814e-33 5.624866287554862e-33 -1.0
  outer loop
    vertex -29.34207978350592 11.897755453600194 3.0
    vertex -27.899999999999995 18.8 3.0
    vertex -28.646475425057293 12.185884212915447 3.0
  endloop
endfacet
facet normal 7.499821716739814e-33 5.624866287554862e-33 -1.0
  outer loop
    vertex -28.646475425057293 12.185884212915447 3.0
    vertex -27.899999999999995 18.8 3.0
    vertex -27.899999999999984 12.284159567011864 3.0
  endloop
endfacet
facet normal 7.499821716739814e-33 5.624866287554862e-33 -1.0
  outer loop
    vertex -27.899999999999984 12.284159567011864 3.0
    vertex -27.899999999999995 18.8 3.0
    vertex -25.467100976036303 18.479702767117242 3.0
  endloop
endfacet
facet normal 7.499821716739814e-33 5.624866287554862e-33 -1.0
  outer loop
    vertex -27.899999999999984 12.284159567011864 3.0
    vertex -25.467100976036303 18.479702767117242 3.0
    vertex -27.153524574942676 12.185884212915447 3.0
  endloop
endfacet
facet normal 7.499821716739814e-33 5.624866287554862e-33 -1.0
  outer loop
    vertex -27.153524574942676 12.185884212915447 3.0
    vertex -25.467100976036303 18.479702767117242 3.0
    vertex -26.457920216494074 11.897755453600206 3.0
  endloop
endfacet
facet normal 7.499821716739814e-33 5.624866287554862e-33 -1.0
  outer loop
    vertex -26.457920216494074 11.897755453600206 3.0
    vertex -25.467100976036303 18.479702767117242 3.0
    vertex -25.860591212141845 11.439408787858142 3.0
  endloop
endfacet
facet normal 7.499821716739814e-33 5.624866287554862e-33 -1.0
  outer loop
    vertex -25.860591212141845 11.439408787858142 3.0
    vertex -25.467100976036303 18.479702767117242 3.0
    vertex -25.735525817281506 11.276420392011737 3.0
  endloop
endfacet
facet normal 7.499821716739814e-33 5.624866287554862e-33 -1.0
  outer loop
    vertex -25.735525817281506 11.276420392011737 3.0
    vertex -25.467100976036303 18.479702767117242 3.0
    vertex -23.036764122174155 11.276420392011737 3.0
  endloop
endfacet
facet normal 7.499821716739814e-33 5.624866287554862e-33 -1.0
  outer loop
    vertex -23.036764122174155 11.276420392011737 3.0
    vertex -25.467100976036303 18.479702767117242 3.0
    vertex -23.199999999999996 17.540638795573724 3.0
  endloop
endfacet
facet normal 7.499821716739814e-33 5.624866287554862e-33 -1.0
  outer loop
    vertex -23.036764122174155 11.276420392011737 3.0
    vertex -23.199999999999996 17.540638795573724 3.0
    vertex -21.25319625684645 16.04680374315355 3.0
  endloop
endfacet
facet normal 7.499821716739814e-33 5.624866287554862e-33 -1.0
  outer loop
    vertex -23.036764122174155 11.276420392011737 3.0
    vertex -21.25319625684645 16.04680374315355 3.0
    vertex -22.036764122174155 11.276420392011737 3.0
  endloop
endfacet
facet normal 7.499821716739814e-33 5.624866287554862e-33 -1.0
  outer loop
    vertex -22.036764122174155 11.276420392011737 3.0
    vertex -21.25319625684645 16.04680374315355 3.0
    vertex -21.88635521475675 10.982353508963056 3.0
  endloop
endfacet
facet normal 7.499821716739814e-33 5.624866287554862e-33 -1.0
  outer loop
    vertex -21.88635521475675 10.982353508963056 3.0
    vertex -21.25319625684645 16.04680374315355 3.0
    vertex -21.761748988625538 10.67645898540011 3.0
  endloop
endfacet
facet normal 7.499821716739814e-33 5.624866287554862e-33 -1.0
  outer loop
    vertex -21.761748988625538 10.67645898540011 3.0
    vertex -21.25319625684645 16.04680374315355 3.0
    vertex -21.663865639571185 10.36099580036203 3.0
  endloop
endfacet
facet normal 7.499821716739814e-33 5.624866287554862e-33 -1.0
  outer loop
    vertex -21.663865639571185 10.36099580036203 3.0
    vertex -21.25319625684645 16.04680374315355 3.0
    vertex -21.5934280194814 10.038293595825792 3.0
  endloop
endfacet
facet normal 7.499821716739814e-33 5.624866287554862e-33 -1.0
  outer loop
    vertex -21.5934280194814 10.038293595825792 3.0
    vertex -21.25319625684645 16.04680374315355 3.0
    vertex -21.536764122174155 9.380740392011738 3.0
  endloop
endfacet
facet normal 7.499821716739814e-33 5.624866287554862e-33 -1.0
  outer loop
    vertex -34.54680374315354 2.753196256846453 3.0
    vertex -34.20657198051858 8.723187188197686 3.0
    vertex -32.599999999999994 1.259361204426276 3.0
  endloop
endfacet
facet normal 7.499821716739814e-33 5.624866287554862e-33 -1.0
  outer loop
    vertex -34.20657198051858 8.723187188197686 3.0
    vertex -34.54680374315354 2.753196256846453 3.0
    vertex -34.26323587782583 9.380740392011738 3.0
  endloop
endfacet
facet normal 7.499821716739814e-33 5.624866287554862e-33 -1.0
  outer loop
    vertex -32.599999999999994 1.259361204426276 3.0
    vertex -34.20657198051858 8.723187188197686 3.0
    vertex -34.13613436042882 8.400484983661444 3.0
  endloop
endfacet
facet normal 7.499821716739814e-33 5.624866287554862e-33 -1.0
  outer loop
    vertex -32.599999999999994 1.259361204426276 3.0
    vertex -34.13613436042882 8.400484983661444 3.0
    vertex -34.03825101137442 8.085021798623368 3.0
  endloop
endfacet
facet normal 7.499821716739814e-33 5.624866287554862e-33 -1.0
  outer loop
    vertex -32.599999999999994 1.259361204426276 3.0
    vertex -34.03825101137442 8.085021798623368 3.0
    vertex -33.9136447852432 7.779127275060421 3.0
  endloop
endfacet
facet normal 7.499821716739814e-33 5.624866287554862e-33 -1.0
  outer loop
    vertex -32.599999999999994 1.259361204426276 3.0
    vertex -33.9136447852432 7.779127275060421 3.0
    vertex -33.76323587782581 7.485060392011737 3.0
  endloop
endfacet
facet normal 7.499821716739814e-33 5.624866287554862e-33 -1.0
  outer loop
    vertex -32.599999999999994 1.259361204426276 3.0
    vertex -33.76323587782581 7.485060392011737 3.0
    vertex -32.763235877825835 7.485060392011737 3.0
  endloop
endfacet
facet normal 7.499821716739814e-33 5.624866287554862e-33 -1.0
  outer loop
    vertex -32.599999999999994 1.259361204426276 3.0
    vertex -32.763235877825835 7.485060392011737 3.0
    vertex -30.034917348743885 7.485060392011737 3.0
  endloop
endfacet
facet normal 7.499821716739814e-33 5.624866287554862e-33 -1.0
  outer loop
    vertex -32.599999999999994 1.259361204426276 3.0
    vertex -30.034917348743885 7.485060392011737 3.0
    vertex -30.33289902396369 0.32029723288275813 3.0
  endloop
endfacet
facet normal 7.499821716739814e-33 5.624866287554862e-33 -1.0
  outer loop
    vertex -30.33289902396369 0.32029723288275813 3.0
    vertex -30.034917348743885 7.485060392011737 3.0
    vertex -27.899999999999995 0.0 3.0
  endloop
endfacet
facet normal 7.499821716739814e-33 5.624866287554862e-33 -1.0
  outer loop
    vertex -27.899999999999995 0.0 3.0
    vertex -30.034917348743885 7.485060392011737 3.0
    vertex -29.93940878785812 7.360591212141852 3.0
  endloop
endfacet
facet normal 7.499821716739814e-33 5.624866287554862e-33 -1.0
  outer loop
    vertex -27.899999999999995 0.0 3.0
    vertex -29.93940878785812 7.360591212141852 3.0
    vertex -29.34207978350592 6.902244546399808 3.0
  endloop
endfacet
facet normal 7.499821716739814e-33 5.624866287554862e-33 -1.0
  outer loop
    vertex -27.899999999999995 0.0 3.0
    vertex -29.34207978350592 6.902244546399808 3.0
    vertex -28.646475425057293 6.614115787084552 3.0
  endloop
endfacet
facet normal 7.499821716739814e-33 5.624866287554862e-33 -1.0
  outer loop
    vertex -27.899999999999995 0.0 3.0
    vertex -28.646475425057293 6.614115787084552 3.0
    vertex -27.899999999999995 6.515840432988143 3.0
  endloop
endfacet
facet normal 7.499821716739814e-33 5.624866287554862e-33 -1.0
  outer loop
    vertex -27.899999999999995 0.0 3.0
    vertex -27.899999999999995 6.515840432988143 3.0
    vertex -27.153524574942676 6.614115787084546 3.0
  endloop
endfacet
facet normal 7.499821716739814e-33 5.624866287554862e-33 -1.0
  outer loop
    vertex -27.899999999999995 0.0 3.0
    vertex -27.153524574942676 6.614115787084546 3.0
    vertex -25.467100976036292 0.3202972328827596 3.0
  endloop
endfacet
facet normal 7.499821716739814e-33 5.624866287554862e-33 -1.0
  outer loop
    vertex -25.467100976036292 0.3202972328827596 3.0
    vertex -27.153524574942676 6.614115787084546 3.0
    vertex -26.457920216494056 6.902244546399802 3.0
  endloop
endfacet
facet normal 7.499821716739814e-33 5.624866287554862e-33 -1.0
  outer loop
    vertex -25.467100976036292 0.3202972328827596 3.0
    vertex -26.457920216494056 6.902244546399802 3.0
    vertex -25.86059121214186 7.360591212141847 3.0
  endloop
endfacet
facet normal 7.499821716739814e-33 5.624866287554862e-33 -1.0
  outer loop
    vertex -25.467100976036292 0.3202972328827596 3.0
    vertex -25.86059121214186 7.360591212141847 3.0
    vertex -25.765082651256083 7.485060392011737 3.0
  endloop
endfacet
facet normal 7.499821716739814e-33 5.624866287554862e-33 -1.0
  outer loop
    vertex -25.467100976036292 0.3202972328827596 3.0
    vertex -25.765082651256083 7.485060392011737 3.0
    vertex -23.036764122174155 7.485060392011737 3.0
  endloop
endfacet
facet normal 7.499821716739814e-33 5.624866287554862e-33 -1.0
  outer loop
    vertex -25.467100976036292 0.3202972328827596 3.0
    vertex -23.036764122174155 7.485060392011737 3.0
    vertex -23.199999999999992 1.2593612044262787 3.0
  endloop
endfacet
facet normal 7.499821716739814e-33 5.624866287554862e-33 -1.0
  outer loop
    vertex -23.199999999999992 1.2593612044262787 3.0
    vertex -23.036764122174155 7.485060392011737 3.0
    vertex -21.253196256846444 2.7531962568464543 3.0
  endloop
endfacet
facet normal 7.499821716739814e-33 5.624866287554862e-33 -1.0
  outer loop
    vertex -21.253196256846444 2.7531962568464543 3.0
    vertex -23.036764122174155 7.485060392011737 3.0
    vertex -22.036764122174155 7.485060392011737 3.0
  endloop
endfacet
facet normal 7.499821716739814e-33 5.624866287554862e-33 -1.0
  outer loop
    vertex -21.253196256846444 2.7531962568464543 3.0
    vertex -22.036764122174155 7.485060392011737 3.0
    vertex -21.88635521475675 7.779127275060421 3.0
  endloop
endfacet
facet normal 7.499821716739814e-33 5.624866287554862e-33 -1.0
  outer loop
    vertex -21.253196256846444 2.7531962568464543 3.0
    vertex -21.88635521475675 7.779127275060421 3.0
    vertex -21.761748988625538 8.085021798623368 3.0
  endloop
endfacet
facet normal 7.499821716739814e-33 5.624866287554862e-33 -1.0
  outer loop
    vertex -21.253196256846444 2.7531962568464543 3.0
    vertex -21.761748988625538 8.085021798623368 3.0
    vertex -21.663865639571185 8.400484983661444 3.0
  endloop
endfacet
facet normal 7.499821716739814e-33 5.624866287554862e-33 -1.0
  outer loop
    vertex -21.253196256846444 2.7531962568464543 3.0
    vertex -21.663865639571185 8.400484983661444 3.0
    vertex -21.5934280194814 8.723187188197686 3.0
  endloop
endfacet
facet normal 7.499821716739814e-33 5.624866287554862e-33 -1.0
  outer loop
    vertex -21.253196256846444 2.7531962568464543 3.0
    vertex -21.5934280194814 8.723187188197686 3.0
    vertex -21.536764122174155 9.380740392011738 3.0
  endloop
endfacet
facet normal 7.499821716739814e-33 5.624866287554862e-33 -1.0
  outer loop
    vertex -21.253196256846444 2.7531962568464543 3.0
    vertex -21.536764122174155 9.380740392011738 3.0
    vertex -21.25319625684645 16.04680374315355 3.0
  endloop
endfacet
facet normal 7.499821716739814e-33 5.624866287554862e-33 -1.0
  outer loop
    vertex -21.253196256846444 2.7531962568464543 3.0
    vertex -21.25319625684645 16.04680374315355 3.0
    vertex -19.759361204426277 14.100000000000003 3.0
  endloop
endfacet
facet normal 7.499821716739814e-33 5.624866287554862e-33 -1.0
  outer loop
    vertex -21.253196256846444 2.7531962568464543 3.0
    vertex -19.759361204426277 14.100000000000003 3.0
    vertex -19.75936120442627 4.700000000000007 3.0
  endloop
endfacet
facet normal 7.499821716739814e-33 5.624866287554862e-33 -1.0
  outer loop
    vertex -19.75936120442627 4.700000000000007 3.0
    vertex -19.759361204426277 14.100000000000003 3.0
    vertex -18.820297232882755 11.832899023963702 3.0
  endloop
endfacet
facet normal 7.499821716739814e-33 5.624866287554862e-33 -1.0
  outer loop
    vertex -19.75936120442627 4.700000000000007 3.0
    vertex -18.820297232882755 11.832899023963702 3.0
    vertex -18.820297232882755 6.967100976036309 3.0
  endloop
endfacet
facet normal 7.499821716739814e-33 5.624866287554862e-33 -1.0
  outer loop
    vertex -18.820297232882755 6.967100976036309 3.0
    vertex -18.820297232882755 11.832899023963702 3.0
    vertex -18.499999999999993 9.4 3.0
  endloop
endfacet
facet normal -0.13052619222005155 -0.9914448613738104 -6.555667947726347e-33
  outer loop
    vertex -27.899999999999995 -5.6248662875548605e-33 3.9999999999999982
    vertex -30.33289902396369 0.32029723288275813 3.0
    vertex -27.899999999999995 0.0 3.0
  endloop
endfacet
facet normal -0.13052619222005155 -0.9914448613738104 -6.555667947726347e-33
  outer loop
    vertex -30.33289902396369 0.32029723288275813 3.0
    vertex -27.899999999999995 -5.6248662875548605e-33 3.9999999999999982
    vertex -30.33289902396369 0.32029723288275813 3.9999999999999982
  endloop
endfacet
facet normal -0.3826834323650892 -0.923879532511287 -8.066756352872912e-33
  outer loop
    vertex -30.33289902396369 0.32029723288275813 3.9999999999999982
    vertex -32.599999999999994 1.259361204426276 3.0
    vertex -30.33289902396369 0.32029723288275813 3.0
  endloop
endfacet
facet normal -0.3826834323650892 -0.923879532511287 -8.066756352872912e-33
  outer loop
    vertex -32.599999999999994 1.259361204426276 3.0
    vertex -30.33289902396369 0.32029723288275813 3.9999999999999982
    vertex -32.599999999999994 1.259361204426276 3.9999999999999982
  endloop
endfacet
facet normal -0.6087614290087218 -0.7933533402912344 -9.028108643516378e-33
  outer loop
    vertex -32.599999999999994 1.259361204426276 3.9999999999999982
    vertex -34.54680374315354 2.753196256846453 3.0
    vertex -32.599999999999994 1.259361204426276 3.0
  endloop
endfacet
facet normal -0.6087614290087218 -0.7933533402912344 -9.028108643516378e-33
  outer loop
    vertex -34.54680374315354 2.753196256846453 3.0
    vertex -32.599999999999994 1.259361204426276 3.9999999999999982
    vertex -34.54680374315354 2.753196256846453 3.9999999999999982
  endloop
endfacet
facet normal -0.7933533402912346 -0.6087614290087215 -9.374210249759154e-33
  outer loop
    vertex -36.04063879557372 4.699999999999999 3.9999999999999982
    vertex -34.54680374315354 2.753196256846453 3.0
    vertex -34.54680374315354 2.753196256846453 3.9999999999999982
  endloop
endfacet
facet normal -0.7933533402912346 -0.6087614290087215 -9.374210249759154e-33
  outer loop
    vertex -34.54680374315354 2.753196256846453 3.0
    vertex -36.04063879557372 4.699999999999999 3.9999999999999982
    vertex -36.04063879557372 4.699999999999999 3.0
  endloop
endfacet
facet normal 0.13052619222005185 -0.9914448613738104 -4.5978216056957495e-33
  outer loop
    vertex -25.467100976036292 0.3202972328827596 3.9999999999999982
    vertex -27.899999999999995 0.0 3.0
    vertex -25.467100976036292 0.3202972328827596 3.0
  endloop
endfacet
facet normal 0.13052619222005185 -0.9914448613738104 -4.5978216056957495e-33
  outer loop
    vertex -27.899999999999995 0.0 3.0
    vertex -25.467100976036292 0.3202972328827596 3.9999999999999982
    vertex -27.899999999999995 -5.6248662875548605e-33 3.9999999999999982
  endloop
endfacet
facet normal -7.499821716739814e-33 -5.624866287554862e-33 1.0
  outer loop
    vertex -34.54680374315354 2.753196256846453 3.9999999999999982
    vertex -34.20657198051858 8.723187188197686 3.9999999999999982
    vertex -34.26323587782583 9.380740392011738 3.9999999999999982
  endloop
endfacet
facet normal -7.499821716739814e-33 -5.624866287554862e-33 1.0
  outer loop
    vertex -34.20657198051858 8.723187188197686 3.9999999999999982
    vertex -34.54680374315354 2.753196256846453 3.9999999999999982
    vertex -32.599999999999994 1.259361204426276 3.9999999999999982
  endloop
endfacet
facet normal -7.499821716739814e-33 -5.624866287554862e-33 1.0
  outer loop
    vertex -34.20657198051858 8.723187188197686 3.9999999999999982
    vertex -32.599999999999994 1.259361204426276 3.9999999999999982
    vertex -34.13613436042882 8.400484983661444 3.9999999999999982
  endloop
endfacet
facet normal -7.499821716739814e-33 -5.624866287554862e-33 1.0
  outer loop
    vertex -34.13613436042882 8.400484983661444 3.9999999999999982
    vertex -32.599999999999994 1.259361204426276 3.9999999999999982
    vertex -34.03825101137442 8.085021798623368 3.9999999999999982
  endloop
endfacet
facet normal -7.499821716739814e-33 -5.624866287554862e-33 1.0
  outer loop
    vertex -34.03825101137442 8.085021798623368 3.9999999999999982
    vertex -32.599999999999994 1.259361204426276 3.9999999999999982
    vertex -33.9136447852432 7.779127275060421 3.9999999999999982
  endloop
endfacet
facet normal -7.499821716739814e-33 -5.624866287554862e-33 1.0
  outer loop
    vertex -33.9136447852432 7.779127275060421 3.9999999999999982
    vertex -32.599999999999994 1.259361204426276 3.9999999999999982
    vertex -33.76323587782581 7.485060392011737 3.9999999999999982
  endloop
endfacet
facet normal -7.499821716739814e-33 -5.624866287554862e-33 1.0
  outer loop
    vertex -33.76323587782581 7.485060392011737 3.9999999999999982
    vertex -32.599999999999994 1.259361204426276 3.9999999999999982
    vertex -32.763235877825835 7.485060392011737 3.9999999999999982
  endloop
endfacet
facet normal -7.499821716739814e-33 -5.624866287554862e-33 1.0
  outer loop
    vertex -32.763235877825835 7.485060392011737 3.9999999999999982
    vertex -32.599999999999994 1.259361204426276 3.9999999999999982
    vertex -30.034917348743885 7.485060392011737 3.9999999999999982
  endloop
endfacet
facet normal -7.499821716739814e-33 -5.624866287554862e-33 1.0
  outer loop
    vertex -30.034917348743885 7.485060392011737 3.9999999999999982
    vertex -32.599999999999994 1.259361204426276 3.9999999999999982
    vertex -30.33289902396369 0.32029723288275813 3.9999999999999982
  endloop
endfacet
facet normal -7.499821716739814e-33 -5.624866287554862e-33 1.0
  outer loop
    vertex -30.034917348743885 7.485060392011737 3.9999999999999982
    vertex -30.33289902396369 0.32029723288275813 3.9999999999999982
    vertex -27.899999999999995 -5.6248662875548605e-33 3.9999999999999982
  endloop
endfacet
facet normal -7.499821716739814e-33 -5.624866287554862e-33 1.0
  outer loop
    vertex -30.034917348743885 7.485060392011737 3.9999999999999982
    vertex -27.899999999999995 -5.6248662875548605e-33 3.9999999999999982
    vertex -29.93940878785812 7.360591212141852 3.9999999999999982
  endloop
endfacet
facet normal -7.499821716739814e-33 -5.624866287554862e-33 1.0
  outer loop
    vertex -29.93940878785812 7.360591212141852 3.9999999999999982
    vertex -27.899999999999995 -5.6248662875548605e-33 3.9999999999999982
    vertex -29.34207978350592 6.902244546399808 3.9999999999999982
  endloop
endfacet
facet normal -7.499821716739814e-33 -5.624866287554862e-33 1.0
  outer loop
    vertex -29.34207978350592 6.902244546399808 3.9999999999999982
    vertex -27.899999999999995 -5.6248662875548605e-33 3.9999999999999982
    vertex -28.646475425057293 6.614115787084552 3.9999999999999982
  endloop
endfacet
facet normal -7.499821716739814e-33 -5.624866287554862e-33 1.0
  outer loop
    vertex -28.646475425057293 6.614115787084552 3.9999999999999982
    vertex -27.899999999999995 -5.6248662875548605e-33 3.9999999999999982
    vertex -27.899999999999995 6.515840432988143 3.9999999999999982
  endloop
endfacet
facet normal -7.499821716739814e-33 -5.624866287554862e-33 1.0
  outer loop
    vertex -27.899999999999995 6.515840432988143 3.9999999999999982
    vertex -27.899999999999995 -5.6248662875548605e-33 3.9999999999999982
    vertex -25.467100976036292 0.3202972328827596 3.9999999999999982
  endloop
endfacet
facet normal -7.499821716739814e-33 -5.624866287554862e-33 1.0
  outer loop
    vertex -27.899999999999995 6.515840432988143 3.9999999999999982
    vertex -25.467100976036292 0.3202972328827596 3.9999999999999982
    vertex -27.153524574942676 6.614115787084546 3.9999999999999982
  endloop
endfacet
facet normal -7.499821716739814e-33 -5.624866287554862e-33 1.0
  outer loop
    vertex -27.153524574942676 6.614115787084546 3.9999999999999982
    vertex -25.467100976036292 0.3202972328827596 3.9999999999999982
    vertex -26.457920216494056 6.902244546399802 3.9999999999999982
  endloop
endfacet
facet normal -7.499821716739814e-33 -5.624866287554862e-33 1.0
  outer loop
    vertex -26.457920216494056 6.902244546399802 3.9999999999999982
    vertex -25.467100976036292 0.3202972328827596 3.9999999999999982
    vertex -25.86059121214186 7.360591212141847 3.9999999999999982
  endloop
endfacet
facet normal -7.499821716739814e-33 -5.624866287554862e-33 1.0
  outer loop
    vertex -25.86059121214186 7.360591212141847 3.9999999999999982
    vertex -25.467100976036292 0.3202972328827596 3.9999999999999982
    vertex -25.765082651256083 7.485060392011737 3.9999999999999982
  endloop
endfacet
facet normal -7.499821716739814e-33 -5.624866287554862e-33 1.0
  outer loop
    vertex -25.765082651256083 7.485060392011737 3.9999999999999982
    vertex -25.467100976036292 0.3202972328827596 3.9999999999999982
    vertex -23.036764122174155 7.485060392011737 3.9999999999999982
  endloop
endfacet
facet normal -7.499821716739814e-33 -5.624866287554862e-33 1.0
  outer loop
    vertex -23.036764122174155 7.485060392011737 3.9999999999999982
    vertex -25.467100976036292 0.3202972328827596 3.9999999999999982
    vertex -23.199999999999992 1.2593612044262787 3.9999999999999982
  endloop
endfacet
facet normal -7.499821716739814e-33 -5.624866287554862e-33 1.0
  outer loop
    vertex -23.036764122174155 7.485060392011737 3.9999999999999982
    vertex -23.199999999999992 1.2593612044262787 3.9999999999999982
    vertex -21.253196256846444 2.7531962568464543 3.9999999999999982
  endloop
endfacet
facet normal -7.499821716739814e-33 -5.624866287554862e-33 1.0
  outer loop
    vertex -23.036764122174155 7.485060392011737 3.9999999999999982
    vertex -21.253196256846444 2.7531962568464543 3.9999999999999982
    vertex -22.036764122174155 7.485060392011737 3.9999999999999982
  endloop
endfacet
facet normal -7.499821716739814e-33 -5.624866287554862e-33 1.0
  outer loop
    vertex -22.036764122174155 7.485060392011737 3.9999999999999982
    vertex -21.253196256846444 2.7531962568464543 3.9999999999999982
    vertex -21.88635521475675 7.779127275060421 3.9999999999999982
  endloop
endfacet
facet normal -7.499821716739814e-33 -5.624866287554862e-33 1.0
  outer loop
    vertex -21.88635521475675 7.779127275060421 3.9999999999999982
    vertex -21.253196256846444 2.7531962568464543 3.9999999999999982
    vertex -21.761748988625538 8.085021798623368 3.9999999999999982
  endloop
endfacet
facet normal -7.499821716739814e-33 -5.624866287554862e-33 1.0
  outer loop
    vertex -21.761748988625538 8.085021798623368 3.9999999999999982
    vertex -21.253196256846444 2.7531962568464543 3.9999999999999982
    vertex -21.663865639571185 8.400484983661444 3.9999999999999982
  endloop
endfacet
facet normal -7.499821716739814e-33 -5.624866287554862e-33 1.0
  outer loop
    vertex -21.663865639571185 8.400484983661444 3.9999999999999982
    vertex -21.253196256846444 2.7531962568464543 3.9999999999999982
    vertex -21.5934280194814 8.723187188197686 3.9999999999999982
  endloop
endfacet
facet normal -7.499821716739814e-33 -5.624866287554862e-33 1.0
  outer loop
    vertex -21.5934280194814 8.723187188197686 3.9999999999999982
    vertex -21.253196256846444 2.7531962568464543 3.9999999999999982
    vertex -21.536764122174155 9.380740392011738 3.9999999999999982
  endloop
endfacet
facet normal -7.499821716739814e-33 -5.624866287554862e-33 1.0
  outer loop
    vertex -21.536764122174155 9.380740392011738 3.9999999999999982
    vertex -21.253196256846444 2.7531962568464543 3.9999999999999982
    vertex -21.25319625684645 16.04680374315355 3.9999999999999982
  endloop
endfacet
facet normal -7.499821716739814e-33 -5.624866287554862e-33 1.0
  outer loop
    vertex -21.25319625684645 16.04680374315355 3.9999999999999982
    vertex -21.253196256846444 2.7531962568464543 3.9999999999999982
    vertex -19.759361204426277 14.100000000000003 3.9999999999999982
  endloop
endfacet
facet normal -7.499821716739814e-33 -5.624866287554862e-33 1.0
  outer loop
    vertex -19.759361204426277 14.100000000000003 3.9999999999999982
    vertex -21.253196256846444 2.7531962568464543 3.9999999999999982
    vertex -19.75936120442627 4.700000000000007 3.9999999999999982
  endloop
endfacet
facet normal -7.499821716739814e-33 -5.624866287554862e-33 1.0
  outer loop
    vertex -19.759361204426277 14.100000000000003 3.9999999999999982
    vertex -19.75936120442627 4.700000000000007 3.9999999999999982
    vertex -18.820297232882755 11.832899023963702 3.9999999999999982
  endloop
endfacet
facet normal -7.499821716739814e-33 -5.624866287554862e-33 1.0
  outer loop
    vertex -18.820297232882755 11.832899023963702 3.9999999999999982
    vertex -19.75936120442627 4.700000000000007 3.9999999999999982
    vertex -18.820297232882755 6.967100976036309 3.9999999999999982
  endloop
endfacet
facet normal -7.499821716739814e-33 -5.624866287554862e-33 1.0
  outer loop
    vertex -18.820297232882755 11.832899023963702 3.9999999999999982
    vertex -18.820297232882755 6.967100976036309 3.9999999999999982
    vertex -18.499999999999993 9.4 3.9999999999999982
  endloop
endfacet
facet normal -7.499821716739814e-33 -5.624866287554862e-33 1.0
  outer loop
    vertex -36.97970276711723 6.967100976036303 3.9999999999999982
    vertex -36.97970276711723 11.832899023963693 3.9999999999999982
    vertex -37.3 9.4 3.9999999999999982
  endloop
endfacet
facet normal -7.499821716739814e-33 -5.624866287554862e-33 1.0
  outer loop
    vertex -36.97970276711723 11.832899023963693 3.9999999999999982
    vertex -36.97970276711723 6.967100976036303 3.9999999999999982
    vertex -36.04063879557372 4.699999999999999 3.9999999999999982
  endloop
endfacet
facet normal -7.499821716739814e-33 -5.624866287554862e-33 1.0
  outer loop
    vertex -36.97970276711723 11.832899023963693 3.9999999999999982
    vertex -36.04063879557372 4.699999999999999 3.9999999999999982
    vertex -36.04063879557372 14.099999999999996 3.9999999999999982
  endloop
endfacet
facet normal -7.499821716739814e-33 -5.624866287554862e-33 1.0
  outer loop
    vertex -36.04063879557372 14.099999999999996 3.9999999999999982
    vertex -36.04063879557372 4.699999999999999 3.9999999999999982
    vertex -34.54680374315354 2.753196256846453 3.9999999999999982
  endloop
endfacet
facet normal -7.499821716739814e-33 -5.624866287554862e-33 1.0
  outer loop
    vertex -36.04063879557372 14.099999999999996 3.9999999999999982
    vertex -34.54680374315354 2.753196256846453 3.9999999999999982
    vertex -34.546803743153546 16.046803743153543 3.9999999999999982
  endloop
endfacet
facet normal -7.499821716739814e-33 -5.624866287554862e-33 1.0
  outer loop
    vertex -34.546803743153546 16.046803743153543 3.9999999999999982
    vertex -34.54680374315354 2.753196256846453 3.9999999999999982
    vertex -34.26323587782583 9.380740392011738 3.9999999999999982
  endloop
endfacet
facet normal -7.499821716739814e-33 -5.624866287554862e-33 1.0
  outer loop
    vertex -34.546803743153546 16.046803743153543 3.9999999999999982
    vertex -34.26323587782583 9.380740392011738 3.9999999999999982
    vertex -34.20657198051858 10.038293595825792 3.9999999999999982
  endloop
endfacet
facet normal -7.499821716739814e-33 -5.624866287554862e-33 1.0
  outer loop
    vertex -34.546803743153546 16.046803743153543 3.9999999999999982
    vertex -34.20657198051858 10.038293595825792 3.9999999999999982
    vertex -32.599999999999994 17.54063879557372 3.9999999999999982
  endloop
endfacet
facet normal -7.499821716739814e-33 -5.624866287554862e-33 1.0
  outer loop
    vertex -32.599999999999994 17.54063879557372 3.9999999999999982
    vertex -34.20657198051858 10.038293595825792 3.9999999999999982
    vertex -34.13613436042882 10.36099580036203 3.9999999999999982
  endloop
endfacet
facet normal -7.499821716739814e-33 -5.624866287554862e-33 1.0
  outer loop
    vertex -32.599999999999994 17.54063879557372 3.9999999999999982
    vertex -34.13613436042882 10.36099580036203 3.9999999999999982
    vertex -34.03825101137442 10.67645898540012 3.9999999999999982
  endloop
endfacet
facet normal -7.499821716739814e-33 -5.624866287554862e-33 1.0
  outer loop
    vertex -32.599999999999994 17.54063879557372 3.9999999999999982
    vertex -34.03825101137442 10.67645898540012 3.9999999999999982
    vertex -33.9136447852432 10.982353508963056 3.9999999999999982
  endloop
endfacet
facet normal -7.499821716739814e-33 -5.624866287554862e-33 1.0
  outer loop
    vertex -32.599999999999994 17.54063879557372 3.9999999999999982
    vertex -33.9136447852432 10.982353508963056 3.9999999999999982
    vertex -33.76323587782581 11.276420392011737 3.9999999999999982
  endloop
endfacet
facet normal -7.499821716739814e-33 -5.624866287554862e-33 1.0
  outer loop
    vertex -32.599999999999994 17.54063879557372 3.9999999999999982
    vertex -33.76323587782581 11.276420392011737 3.9999999999999982
    vertex -32.763235877825835 11.276420392011737 3.9999999999999982
  endloop
endfacet
facet normal -7.499821716739814e-33 -5.624866287554862e-33 1.0
  outer loop
    vertex -32.599999999999994 17.54063879557372 3.9999999999999982
    vertex -32.763235877825835 11.276420392011737 3.9999999999999982
    vertex -30.06447418271847 11.276420392011737 3.9999999999999982
  endloop
endfacet
facet normal -7.499821716739814e-33 -5.624866287554862e-33 1.0
  outer loop
    vertex -32.599999999999994 17.54063879557372 3.9999999999999982
    vertex -30.06447418271847 11.276420392011737 3.9999999999999982
    vertex -30.33289902396369 18.47970276711724 3.9999999999999982
  endloop
endfacet
facet normal -7.499821716739814e-33 -5.624866287554862e-33 1.0
  outer loop
    vertex -30.33289902396369 18.47970276711724 3.9999999999999982
    vertex -30.06447418271847 11.276420392011737 3.9999999999999982
    vertex -27.899999999999995 18.8 3.9999999999999982
  endloop
endfacet
facet normal -7.499821716739814e-33 -5.624866287554862e-33 1.0
  outer loop
    vertex -27.899999999999995 18.8 3.9999999999999982
    vertex -30.06447418271847 11.276420392011737 3.9999999999999982
    vertex -29.93940878785812 11.439408787858152 3.9999999999999982
  endloop
endfacet
facet normal -7.499821716739814e-33 -5.624866287554862e-33 1.0
  outer loop
    vertex -27.899999999999995 18.8 3.9999999999999982
    vertex -29.93940878785812 11.439408787858152 3.9999999999999982
    vertex -29.34207978350592 11.897755453600194 3.9999999999999982
  endloop
endfacet
facet normal -7.499821716739814e-33 -5.624866287554862e-33 1.0
  outer loop
    vertex -27.899999999999995 18.8 3.9999999999999982
    vertex -29.34207978350592 11.897755453600194 3.9999999999999982
    vertex -28.646475425057293 12.185884212915447 3.9999999999999982
  endloop
endfacet
facet normal -7.499821716739814e-33 -5.624866287554862e-33 1.0
  outer loop
    vertex -27.899999999999995 18.8 3.9999999999999982
    vertex -28.646475425057293 12.185884212915447 3.9999999999999982
    vertex -27.899999999999984 12.284159567011864 3.9999999999999982
  endloop
endfacet
facet normal -7.499821716739814e-33 -5.624866287554862e-33 1.0
  outer loop
    vertex -27.899999999999995 18.8 3.9999999999999982
    vertex -27.899999999999984 12.284159567011864 3.9999999999999982
    vertex -25.467100976036303 18.479702767117242 3.9999999999999982
  endloop
endfacet
facet normal -7.499821716739814e-33 -5.624866287554862e-33 1.0
  outer loop
    vertex -25.467100976036303 18.479702767117242 3.9999999999999982
    vertex -27.899999999999984 12.284159567011864 3.9999999999999982
    vertex -27.153524574942676 12.185884212915447 3.9999999999999982
  endloop
endfacet
facet normal -7.499821716739814e-33 -5.624866287554862e-33 1.0
  outer loop
    vertex -25.467100976036303 18.479702767117242 3.9999999999999982
    vertex -27.153524574942676 12.185884212915447 3.9999999999999982
    vertex -26.457920216494074 11.897755453600206 3.9999999999999982
  endloop
endfacet
facet normal -7.499821716739814e-33 -5.624866287554862e-33 1.0
  outer loop
    vertex -25.467100976036303 18.479702767117242 3.9999999999999982
    vertex -26.457920216494074 11.897755453600206 3.9999999999999982
    vertex -25.860591212141845 11.439408787858142 3.9999999999999982
  endloop
endfacet
facet normal -7.499821716739814e-33 -5.624866287554862e-33 1.0
  outer loop
    vertex -25.467100976036303 18.479702767117242 3.9999999999999982
    vertex -25.860591212141845 11.439408787858142 3.9999999999999982
    vertex -25.735525817281506 11.276420392011737 3.9999999999999982
  endloop
endfacet
facet normal -7.499821716739814e-33 -5.624866287554862e-33 1.0
  outer loop
    vertex -25.467100976036303 18.479702767117242 3.9999999999999982
    vertex -25.735525817281506 11.276420392011737 3.9999999999999982
    vertex -23.036764122174155 11.276420392011737 3.9999999999999982
  endloop
endfacet
facet normal -7.499821716739814e-33 -5.624866287554862e-33 1.0
  outer loop
    vertex -25.467100976036303 18.479702767117242 3.9999999999999982
    vertex -23.036764122174155 11.276420392011737 3.9999999999999982
    vertex -23.199999999999996 17.540638795573724 3.9999999999999982
  endloop
endfacet
facet normal -7.499821716739814e-33 -5.624866287554862e-33 1.0
  outer loop
    vertex -23.199999999999996 17.540638795573724 3.9999999999999982
    vertex -23.036764122174155 11.276420392011737 3.9999999999999982
    vertex -21.25319625684645 16.04680374315355 3.9999999999999982
  endloop
endfacet
facet normal -7.499821716739814e-33 -5.624866287554862e-33 1.0
  outer loop
    vertex -21.25319625684645 16.04680374315355 3.9999999999999982
    vertex -23.036764122174155 11.276420392011737 3.9999999999999982
    vertex -22.036764122174155 11.276420392011737 3.9999999999999982
  endloop
endfacet
facet normal -7.499821716739814e-33 -5.624866287554862e-33 1.0
  outer loop
    vertex -21.25319625684645 16.04680374315355 3.9999999999999982
    vertex -22.036764122174155 11.276420392011737 3.9999999999999982
    vertex -21.88635521475675 10.982353508963056 3.9999999999999982
  endloop
endfacet
facet normal -7.499821716739814e-33 -5.624866287554862e-33 1.0
  outer loop
    vertex -21.25319625684645 16.04680374315355 3.9999999999999982
    vertex -21.88635521475675 10.982353508963056 3.9999999999999982
    vertex -21.761748988625538 10.67645898540011 3.9999999999999982
  endloop
endfacet
facet normal -7.499821716739814e-33 -5.624866287554862e-33 1.0
  outer loop
    vertex -21.25319625684645 16.04680374315355 3.9999999999999982
    vertex -21.761748988625538 10.67645898540011 3.9999999999999982
    vertex -21.663865639571185 10.36099580036203 3.9999999999999982
  endloop
endfacet
facet normal -7.499821716739814e-33 -5.624866287554862e-33 1.0
  outer loop
    vertex -21.25319625684645 16.04680374315355 3.9999999999999982
    vertex -21.663865639571185 10.36099580036203 3.9999999999999982
    vertex -21.5934280194814 10.038293595825792 3.9999999999999982
  endloop
endfacet
facet normal -7.499821716739814e-33 -5.624866287554862e-33 1.0
  outer loop
    vertex -21.25319625684645 16.04680374315355 3.9999999999999982
    vertex -21.5934280194814 10.038293595825792 3.9999999999999982
    vertex -21.536764122174155 9.380740392011738 3.9999999999999982
  endloop
endfacet
facet normal 0.6087614290087203 -0.7933533402912356 1.030957276699527e-34
  outer loop
    vertex -21.253196256846444 2.7531962568464543 3.9999999999999982
    vertex -23.199999999999992 1.2593612044262787 3.0
    vertex -21.253196256846444 2.7531962568464543 3.0
  endloop
endfacet
facet normal 0.6087614290087203 -0.7933533402912356 1.030957276699527e-34
  outer loop
    vertex -23.199999999999992 1.2593612044262787 3.0
    vertex -21.253196256846444 2.7531962568464543 3.9999999999999982
    vertex -23.199999999999992 1.2593612044262787 3.9999999999999982
  endloop
endfacet
facet normal -0.9238795325112871 -0.3826834323650893 -9.081474919095749e-33
  outer loop
    vertex -36.97970276711723 6.967100976036303 3.9999999999999982
    vertex -36.04063879557372 4.699999999999999 3.0
    vertex -36.04063879557372 4.699999999999999 3.9999999999999982
  endloop
endfacet
facet normal -0.9238795325112871 -0.3826834323650893 -9.081474919095749e-33
  outer loop
    vertex -36.04063879557372 4.699999999999999 3.0
    vertex -36.97970276711723 6.967100976036303 3.9999999999999982
    vertex -36.97970276711723 6.967100976036303 3.0
  endloop
endfacet
facet normal 0.7933533402912366 -0.6087614290087188 2.525806971369424e-33
  outer loop
    vertex -19.75936120442627 4.700000000000007 3.0
    vertex -21.253196256846444 2.7531962568464543 3.9999999999999982
    vertex -21.253196256846444 2.7531962568464543 3.0
  endloop
endfacet
facet normal 0.7933533402912366 -0.6087614290087188 2.525806971369424e-33
  outer loop
    vertex -21.253196256846444 2.7531962568464543 3.9999999999999982
    vertex -19.75936120442627 4.700000000000007 3.0
    vertex -19.75936120442627 4.700000000000007 3.9999999999999982
  endloop
endfacet
facet normal -0.9914448613738104 -0.13052619222005207 -8.169852080542875e-33
  outer loop
    vertex -37.3 9.4 3.9999999999999982
    vertex -36.97970276711723 6.967100976036303 3.0
    vertex -36.97970276711723 6.967100976036303 3.9999999999999982
  endloop
endfacet
facet normal -0.9914448613738104 -0.13052619222005207 -8.169852080542875e-33
  outer loop
    vertex -36.97970276711723 6.967100976036303 3.0
    vertex -37.3 9.4 3.9999999999999982
    vertex -37.3 9.4 3.0
  endloop
endfacet
facet normal -0.9914448613738104 0.13052619222005232 -6.70146732401992e-33
  outer loop
    vertex -36.97970276711723 11.832899023963693 3.9999999999999982
    vertex -37.3 9.4 3.0
    vertex -37.3 9.4 3.9999999999999982
  endloop
endfacet
facet normal -0.9914448613738104 0.13052619222005232 -6.70146732401992e-33
  outer loop
    vertex -37.3 9.4 3.0
    vertex -36.97970276711723 11.832899023963693 3.9999999999999982
    vertex -36.97970276711723 11.832899023963693 3.0
  endloop
endfacet
facet normal -0.9238795325112871 0.38268343236508917 -4.776388644063407e-33
  outer loop
    vertex -36.04063879557372 14.099999999999996 3.9999999999999982
    vertex -36.97970276711723 11.832899023963693 3.0
    vertex -36.97970276711723 11.832899023963693 3.9999999999999982
  endloop
endfacet
facet normal -0.9238795325112871 0.38268343236508917 -4.776388644063407e-33
  outer loop
    vertex -36.97970276711723 11.832899023963693 3.0
    vertex -36.04063879557372 14.099999999999996 3.9999999999999982
    vertex -36.04063879557372 14.099999999999996 3.0
  endloop
endfacet
facet normal -0.7933533402912357 0.6087614290087199 -2.5258069713694105e-33
  outer loop
    vertex -34.546803743153546 16.046803743153543 3.9999999999999982
    vertex -36.04063879557372 14.099999999999996 3.0
    vertex -36.04063879557372 14.099999999999996 3.9999999999999982
  endloop
endfacet
facet normal -0.7933533402912357 0.6087614290087199 -2.5258069713694105e-33
  outer loop
    vertex -36.04063879557372 14.099999999999996 3.0
    vertex -34.546803743153546 16.046803743153543 3.9999999999999982
    vertex -34.546803743153546 16.046803743153543 3.0
  endloop
endfacet
facet normal -0.6087614290087207 0.7933533402912353 -1.0309572766995709e-34
  outer loop
    vertex -34.546803743153546 16.046803743153543 3.9999999999999982
    vertex -32.599999999999994 17.54063879557372 3.0
    vertex -34.546803743153546 16.046803743153543 3.0
  endloop
endfacet
facet normal -0.6087614290087207 0.7933533402912353 -1.0309572766995709e-34
  outer loop
    vertex -32.599999999999994 17.54063879557372 3.0
    vertex -34.546803743153546 16.046803743153543 3.9999999999999982
    vertex -32.599999999999994 17.54063879557372 3.9999999999999982
  endloop
endfacet
facet normal -0.3826834323650898 0.9238795325112868 2.326641319496451e-33
  outer loop
    vertex -32.599999999999994 17.54063879557372 3.9999999999999982
    vertex -30.33289902396369 18.47970276711724 3.0
    vertex -32.599999999999994 17.54063879557372 3.0
  endloop
endfacet
facet normal -0.3826834323650898 0.9238795325112868 2.326641319496451e-33
  outer loop
    vertex -30.33289902396369 18.47970276711724 3.0
    vertex -32.599999999999994 17.54063879557372 3.9999999999999982
    vertex -30.33289902396369 18.47970276711724 3.9999999999999982
  endloop
endfacet
facet normal -0.13052619222005216 0.9914448613738104 4.597821605695746e-33
  outer loop
    vertex -30.33289902396369 18.47970276711724 3.9999999999999982
    vertex -27.899999999999995 18.8 3.0
    vertex -30.33289902396369 18.47970276711724 3.0
  endloop
endfacet
facet normal -0.13052619222005216 0.9914448613738104 4.597821605695746e-33
  outer loop
    vertex -27.899999999999995 18.8 3.0
    vertex -30.33289902396369 18.47970276711724 3.9999999999999982
    vertex -27.899999999999995 18.8 3.9999999999999982
  endloop
endfacet
facet normal 0.13052619222005132 0.9914448613738104 6.555667947726347e-33
  outer loop
    vertex -27.899999999999995 18.8 3.9999999999999982
    vertex -25.467100976036303 18.479702767117242 3.0
    vertex -27.899999999999995 18.8 3.0
  endloop
endfacet
facet normal 0.13052619222005132 0.9914448613738104 6.555667947726347e-33
  outer loop
    vertex -25.467100976036303 18.479702767117242 3.0
    vertex -27.899999999999995 18.8 3.9999999999999982
    vertex -25.467100976036303 18.479702767117242 3.9999999999999982
  endloop
endfacet
facet normal 0.3826834323650898 0.9238795325112868 8.066756352872914e-33
  outer loop
    vertex -25.467100976036303 18.479702767117242 3.9999999999999982
    vertex -23.199999999999996 17.540638795573724 3.0
    vertex -25.467100976036303 18.479702767117242 3.0
  endloop
endfacet
facet normal 0.3826834323650898 0.9238795325112868 8.066756352872914e-33
  outer loop
    vertex -23.199999999999996 17.540638795573724 3.0
    vertex -25.467100976036303 18.479702767117242 3.9999999999999982
    vertex -23.199999999999996 17.540638795573724 3.9999999999999982
  endloop
endfacet
facet normal 0.6087614290087199 0.7933533402912357 9.02810864351637e-33
  outer loop
    vertex -23.199999999999996 17.540638795573724 3.9999999999999982
    vertex -21.25319625684645 16.04680374315355 3.0
    vertex -23.199999999999996 17.540638795573724 3.0
  endloop
endfacet
facet normal 0.6087614290087199 0.7933533402912357 9.02810864351637e-33
  outer loop
    vertex -21.25319625684645 16.04680374315355 3.0
    vertex -23.199999999999996 17.540638795573724 3.9999999999999982
    vertex -21.25319625684645 16.04680374315355 3.9999999999999982
  endloop
endfacet
facet normal 0.7933533402912357 0.6087614290087199 9.374210249759153e-33
  outer loop
    vertex -21.25319625684645 16.04680374315355 3.0
    vertex -19.759361204426277 14.100000000000003 3.9999999999999982
    vertex -19.759361204426277 14.100000000000003 3.0
  endloop
endfacet
facet normal 0.7933533402912357 0.6087614290087199 9.374210249759153e-33
  outer loop
    vertex -19.759361204426277 14.100000000000003 3.9999999999999982
    vertex -21.25319625684645 16.04680374315355 3.0
    vertex -21.25319625684645 16.04680374315355 3.9999999999999982
  endloop
endfacet
facet normal 0.923879532511286 0.3826834323650915 9.081474919095753e-33
  outer loop
    vertex -19.759361204426277 14.100000000000003 3.0
    vertex -18.820297232882755 11.832899023963702 3.9999999999999982
    vertex -18.820297232882755 11.832899023963702 3.0
  endloop
endfacet
facet normal 0.923879532511286 0.3826834323650915 9.081474919095753e-33
  outer loop
    vertex -18.820297232882755 11.832899023963702 3.9999999999999982
    vertex -19.759361204426277 14.100000000000003 3.0
    vertex -19.759361204426277 14.100000000000003 3.9999999999999982
  endloop
endfacet
facet normal 0.9914448613738104 0.13052619222005193 8.169852080542873e-33
  outer loop
    vertex -18.820297232882755 11.832899023963702 3.0
    vertex -18.499999999999993 9.4 3.9999999999999982
    vertex -18.499999999999993 9.4 3.0
  endloop
endfacet
facet normal 0.9914448613738104 0.13052619222005193 8.169852080542873e-33
  outer loop
    vertex -18.499999999999993 9.4 3.9999999999999982
    vertex -18.820297232882755 11.832899023963702 3.0
    vertex -18.820297232882755 11.832899023963702 3.9999999999999982
  endloop
endfacet
facet normal 0.9914448613738103 -0.13052619222005238 6.701467324019919e-33
  outer loop
    vertex -18.499999999999993 9.4 3.0
    vertex -18.820297232882755 6.967100976036309 3.9999999999999982
    vertex -18.820297232882755 6.967100976036309 3.0
  endloop
endfacet
facet normal 0.9914448613738103 -0.13052619222005238 6.701467324019919e-33
  outer loop
    vertex -18.820297232882755 6.967100976036309 3.9999999999999982
    vertex -18.499999999999993 9.4 3.0
    vertex -18.499999999999993 9.4 3.9999999999999982
  endloop
endfacet
facet normal 0.9238795325112868 -0.38268343236508934 4.7763886440634045e-33
  outer loop
    vertex -18.820297232882755 6.967100976036309 3.0
    vertex -19.75936120442627 4.700000000000007 3.9999999999999982
    vertex -19.75936120442627 4.700000000000007 3.0
  endloop
endfacet
facet normal 0.9238795325112868 -0.38268343236508934 4.7763886440634045e-33
  outer loop
    vertex -19.75936120442627 4.700000000000007 3.9999999999999982
    vertex -18.820297232882755 6.967100976036309 3.0
    vertex -18.820297232882755 6.967100976036309 3.9999999999999982
  endloop
endfacet
facet normal -0.6087614290087215 0.7933533402912346 -1.0309572766996697e-34
  outer loop
    vertex -26.457920216494056 6.902244546399802 3.9999999999999982
    vertex -25.86059121214186 7.360591212141847 3.0
    vertex -26.457920216494056 6.902244546399802 3.0
  endloop
endfacet
facet normal -0.6087614290087215 0.7933533402912346 -1.0309572766996697e-34
  outer loop
    vertex -25.86059121214186 7.360591212141847 3.0
    vertex -26.457920216494056 6.902244546399802 3.9999999999999982
    vertex -25.86059121214186 7.360591212141847 3.9999999999999982
  endloop
endfacet
facet normal -0.7933533402912384 0.6087614290087164 -2.5258069713694502e-33
  outer loop
    vertex -25.765082651256083 7.485060392011737 3.9999999999999982
    vertex -25.86059121214186 7.360591212141847 3.0
    vertex -25.86059121214186 7.360591212141847 3.9999999999999982
  endloop
endfacet
facet normal -0.7933533402912384 0.6087614290087164 -2.5258069713694502e-33
  outer loop
    vertex -25.86059121214186 7.360591212141847 3.0
    vertex -25.765082651256083 7.485060392011737 3.9999999999999982
    vertex -25.765082651256083 7.485060392011737 3.0
  endloop
endfacet
facet normal 0.0 1.0 5.624866287554862e-33
  outer loop
    vertex -25.765082651256083 7.485060392011737 3.9999999999999982
    vertex -23.036764122174155 7.485060392011737 3.0
    vertex -25.765082651256083 7.485060392011737 3.0
  endloop
endfacet
facet normal 0.0 1.0 5.624866287554862e-33
  outer loop
    vertex -23.036764122174155 7.485060392011737 3.0
    vertex -25.765082651256083 7.485060392011737 3.9999999999999982
    vertex -23.036764122174155 7.485060392011737 3.9999999999999982
  endloop
endfacet
facet normal 0.0 1.0 5.624866287554861e-33
  outer loop
    vertex -23.036764122174155 7.485060392011737 3.9999999999999982
    vertex -22.036764122174155 7.485060392011737 3.0
    vertex -23.036764122174155 7.485060392011737 3.0
  endloop
endfacet
facet normal 0.0 1.0 5.624866287554861e-33
  outer loop
    vertex -22.036764122174155 7.485060392011737 3.0
    vertex -23.036764122174155 7.485060392011737 3.9999999999999982
    vertex -22.036764122174155 7.485060392011737 3.9999999999999982
  endloop
endfacet
facet normal -0.8903020699354659 0.45537042533373273 -4.115709044751184e-33
  outer loop
    vertex -21.88635521475675 7.779127275060421 3.9999999999999982
    vertex -22.036764122174155 7.485060392011737 3.0
    vertex -22.036764122174155 7.485060392011737 3.9999999999999982
  endloop
endfacet
facet normal -0.8903020699354659 0.45537042533373273 -4.115709044751184e-33
  outer loop
    vertex -22.036764122174155 7.485060392011737 3.0
    vertex -21.88635521475675 7.779127275060421 3.9999999999999982
    vertex -21.88635521475675 7.779127275060421 3.0
  endloop
endfacet
facet normal -0.9261108380739579 0.37725152829637604 -4.823676772052345e-33
  outer loop
    vertex -21.761748988625538 8.085021798623368 3.9999999999999982
    vertex -21.88635521475675 7.779127275060421 3.0
    vertex -21.88635521475675 7.779127275060421 3.9999999999999982
  endloop
endfacet
facet normal -0.9261108380739579 0.37725152829637604 -4.823676772052345e-33
  outer loop
    vertex -21.88635521475675 7.779127275060421 3.0
    vertex -21.761748988625538 8.085021798623368 3.9999999999999982
    vertex -21.761748988625538 8.085021798623368 3.0
  endloop
endfacet
facet normal -0.9550804351584841 0.29634669287420895 -5.4960224666583984e-33
  outer loop
    vertex -21.663865639571185 8.400484983661444 3.9999999999999982
    vertex -21.761748988625538 8.085021798623368 3.0
    vertex -21.761748988625538 8.085021798623368 3.9999999999999982
  endloop
endfacet
facet normal -0.9550804351584841 0.29634669287420895 -5.4960224666583984e-33
  outer loop
    vertex -21.761748988625538 8.085021798623368 3.0
    vertex -21.663865639571185 8.400484983661444 3.9999999999999982
    vertex -21.663865639571185 8.400484983661444 3.0
  endloop
endfacet
facet normal -0.9769969256408652 0.21325338751892806 -6.1277809699473025e-33
  outer loop
    vertex -21.5934280194814 8.723187188197686 3.9999999999999982
    vertex -21.663865639571185 8.400484983661444 3.0
    vertex -21.663865639571185 8.400484983661444 3.9999999999999982
  endloop
endfacet
facet normal -0.9769969256408652 0.21325338751892806 -6.1277809699473025e-33
  outer loop
    vertex -21.663865639571185 8.400484983661444 3.0
    vertex -21.5934280194814 8.723187188197686 3.9999999999999982
    vertex -21.5934280194814 8.723187188197686 3.0
  endloop
endfacet
facet normal -0.9963075850250356 0.0858556697113346 -6.989202600568629e-33
  outer loop
    vertex -21.536764122174155 9.380740392011738 3.9999999999999982
    vertex -21.5934280194814 8.723187188197686 3.0
    vertex -21.5934280194814 8.723187188197686 3.9999999999999982
  endloop
endfacet
facet normal -0.9963075850250356 0.0858556697113346 -6.989202600568629e-33
  outer loop
    vertex -21.5934280194814 8.723187188197686 3.0
    vertex -21.536764122174155 9.380740392011738 3.9999999999999982
    vertex -21.536764122174155 9.380740392011738 3.0
  endloop
endfacet
facet normal -0.9963075850250356 -0.0858556697113346 -7.955055924878091e-33
  outer loop
    vertex -21.5934280194814 10.038293595825792 3.9999999999999982
    vertex -21.536764122174155 9.380740392011738 3.0
    vertex -21.536764122174155 9.380740392011738 3.9999999999999982
  endloop
endfacet
facet normal -0.9963075850250356 -0.0858556697113346 -7.955055924878091e-33
  outer loop
    vertex -21.536764122174155 9.380740392011738 3.0
    vertex -21.5934280194814 10.038293595825792 3.9999999999999982
    vertex -21.5934280194814 10.038293595825792 3.0
  endloop
endfacet
facet normal -0.9769969256408647 -0.21325338751892983 -8.526824550271491e-33
  outer loop
    vertex -21.663865639571185 10.36099580036203 3.9999999999999982
    vertex -21.5934280194814 10.038293595825792 3.0
    vertex -21.5934280194814 10.038293595825792 3.9999999999999982
  endloop
endfacet
facet normal -0.9769969256408647 -0.21325338751892983 -8.526824550271491e-33
  outer loop
    vertex -21.5934280194814 10.038293595825792 3.0
    vertex -21.663865639571185 10.36099580036203 3.9999999999999982
    vertex -21.663865639571185 10.36099580036203 3.0
  endloop
endfacet
facet normal -0.9550804351584848 -0.2963466928742065 -8.829843511011415e-33
  outer loop
    vertex -21.761748988625538 10.67645898540011 3.9999999999999982
    vertex -21.663865639571185 10.36099580036203 3.0
    vertex -21.663865639571185 10.36099580036203 3.9999999999999982
  endloop
endfacet
facet normal -0.9550804351584848 -0.2963466928742065 -8.829843511011415e-33
  outer loop
    vertex -21.663865639571185 10.36099580036203 3.0
    vertex -21.761748988625538 10.67645898540011 3.9999999999999982
    vertex -21.761748988625538 10.67645898540011 3.0
  endloop
endfacet
facet normal -0.9261108380739579 -0.37725152829637604 -9.067655578938014e-33
  outer loop
    vertex -21.88635521475675 10.982353508963056 3.9999999999999982
    vertex -21.761748988625538 10.67645898540011 3.0
    vertex -21.761748988625538 10.67645898540011 3.9999999999999982
  endloop
endfacet
facet normal -0.9261108380739579 -0.37725152829637604 -9.067655578938014e-33
  outer loop
    vertex -21.761748988625538 10.67645898540011 3.0
    vertex -21.88635521475675 10.982353508963056 3.9999999999999982
    vertex -21.88635521475675 10.982353508963056 3.0
  endloop
endfacet
facet normal -0.8903020699354642 -0.4553704253337363 -9.238504552369654e-33
  outer loop
    vertex -22.036764122174155 11.276420392011737 3.9999999999999982
    vertex -21.88635521475675 10.982353508963056 3.0
    vertex -21.88635521475675 10.982353508963056 3.9999999999999982
  endloop
endfacet
facet normal -0.8903020699354642 -0.4553704253337363 -9.238504552369654e-33
  outer loop
    vertex -21.88635521475675 10.982353508963056 3.0
    vertex -22.036764122174155 11.276420392011737 3.9999999999999982
    vertex -22.036764122174155 11.276420392011737 3.0
  endloop
endfacet
facet normal -0.0 -1.0 -5.624866287554861e-33
  outer loop
    vertex -22.036764122174155 11.276420392011737 3.9999999999999982
    vertex -23.036764122174155 11.276420392011737 3.0
    vertex -22.036764122174155 11.276420392011737 3.0
  endloop
endfacet
facet normal -0.0 -1.0 -5.624866287554861e-33
  outer loop
    vertex -23.036764122174155 11.276420392011737 3.0
    vertex -22.036764122174155 11.276420392011737 3.9999999999999982
    vertex -23.036764122174155 11.276420392011737 3.9999999999999982
  endloop
endfacet
facet normal -0.0 -1.0 -5.624866287554862e-33
  outer loop
    vertex -23.036764122174155 11.276420392011737 3.9999999999999982
    vertex -25.735525817281506 11.276420392011737 3.0
    vertex -23.036764122174155 11.276420392011737 3.0
  endloop
endfacet
facet normal -0.0 -1.0 -5.624866287554862e-33
  outer loop
    vertex -25.735525817281506 11.276420392011737 3.0
    vertex -23.036764122174155 11.276420392011737 3.9999999999999982
    vertex -25.735525817281506 11.276420392011737 3.9999999999999982
  endloop
endfacet
facet normal -0.7933533402912458 -0.6087614290087067 -9.374210249759154e-33
  outer loop
    vertex -25.860591212141845 11.439408787858142 3.9999999999999982
    vertex -25.735525817281506 11.276420392011737 3.0
    vertex -25.735525817281506 11.276420392011737 3.9999999999999982
  endloop
endfacet
facet normal -0.7933533402912458 -0.6087614290087067 -9.374210249759154e-33
  outer loop
    vertex -25.735525817281506 11.276420392011737 3.0
    vertex -25.860591212141845 11.439408787858142 3.9999999999999982
    vertex -25.860591212141845 11.439408787858142 3.0
  endloop
endfacet
facet normal -0.60876142900872 -0.7933533402912357 -9.028108643516373e-33
  outer loop
    vertex -25.860591212141845 11.439408787858142 3.9999999999999982
    vertex -26.457920216494074 11.897755453600206 3.0
    vertex -25.860591212141845 11.439408787858142 3.0
  endloop
endfacet
facet normal -0.60876142900872 -0.7933533402912357 -9.028108643516373e-33
  outer loop
    vertex -26.457920216494074 11.897755453600206 3.0
    vertex -25.860591212141845 11.439408787858142 3.9999999999999982
    vertex -26.457920216494074 11.897755453600206 3.9999999999999982
  endloop
endfacet
facet normal -0.3826834323650837 -0.9238795325112894 -8.066756352872885e-33
  outer loop
    vertex -26.457920216494074 11.897755453600206 3.9999999999999982
    vertex -27.153524574942676 12.185884212915447 3.0
    vertex -26.457920216494074 11.897755453600206 3.0
  endloop
endfacet
facet normal -0.3826834323650837 -0.9238795325112894 -8.066756352872885e-33
  outer loop
    vertex -27.153524574942676 12.185884212915447 3.0
    vertex -26.457920216494074 11.897755453600206 3.9999999999999982
    vertex -27.153524574942676 12.185884212915447 3.9999999999999982
  endloop
endfacet
facet normal -0.13052619222006426 -0.9914448613738088 -6.555667947726434e-33
  outer loop
    vertex -27.153524574942676 12.185884212915447 3.9999999999999982
    vertex -27.899999999999984 12.284159567011864 3.0
    vertex -27.153524574942676 12.185884212915447 3.0
  endloop
endfacet
facet normal -0.13052619222006426 -0.9914448613738088 -6.555667947726434e-33
  outer loop
    vertex -27.899999999999984 12.284159567011864 3.0
    vertex -27.153524574942676 12.185884212915447 3.9999999999999982
    vertex -27.899999999999984 12.284159567011864 3.9999999999999982
  endloop
endfacet
facet normal 0.13052619222006331 -0.9914448613738089 -4.5978216056956544e-33
  outer loop
    vertex -27.899999999999984 12.284159567011864 3.9999999999999982
    vertex -28.646475425057293 12.185884212915447 3.0
    vertex -27.899999999999984 12.284159567011864 3.0
  endloop
endfacet
facet normal 0.13052619222006331 -0.9914448613738089 -4.5978216056956544e-33
  outer loop
    vertex -28.646475425057293 12.185884212915447 3.0
    vertex -27.899999999999984 12.284159567011864 3.9999999999999982
    vertex -28.646475425057293 12.185884212915447 3.9999999999999982
  endloop
endfacet
facet normal 0.38268343236508584 -0.9238795325112884 -2.3266413194964896e-33
  outer loop
    vertex -28.646475425057293 12.185884212915447 3.9999999999999982
    vertex -29.34207978350592 11.897755453600194 3.0
    vertex -28.646475425057293 12.185884212915447 3.0
  endloop
endfacet
facet normal 0.38268343236508584 -0.9238795325112884 -2.3266413194964896e-33
  outer loop
    vertex -29.34207978350592 11.897755453600194 3.0
    vertex -28.646475425057293 12.185884212915447 3.9999999999999982
    vertex -29.34207978350592 11.897755453600194 3.9999999999999982
  endloop
endfacet
facet normal 0.6087614290087191 -0.7933533402912363 1.0309572766993904e-34
  outer loop
    vertex -29.34207978350592 11.897755453600194 3.9999999999999982
    vertex -29.93940878785812 11.439408787858152 3.0
    vertex -29.34207978350592 11.897755453600194 3.0
  endloop
endfacet
facet normal 0.6087614290087191 -0.7933533402912363 1.0309572766993904e-34
  outer loop
    vertex -29.93940878785812 11.439408787858152 3.0
    vertex -29.34207978350592 11.897755453600194 3.9999999999999982
    vertex -29.93940878785812 11.439408787858152 3.9999999999999982
  endloop
endfacet
facet normal 0.7933533402912396 -0.6087614290087148 2.525806971369469e-33
  outer loop
    vertex -29.93940878785812 11.439408787858152 3.0
    vertex -30.06447418271847 11.276420392011737 3.9999999999999982
    vertex -30.06447418271847 11.276420392011737 3.0
  endloop
endfacet
facet normal 0.7933533402912396 -0.6087614290087148 2.525806971369469e-33
  outer loop
    vertex -30.06447418271847 11.276420392011737 3.9999999999999982
    vertex -29.93940878785812 11.439408787858152 3.0
    vertex -29.93940878785812 11.439408787858152 3.9999999999999982
  endloop
endfacet
facet normal -0.0 -1.0 -5.624866287554862e-33
  outer loop
    vertex -30.06447418271847 11.276420392011737 3.9999999999999982
    vertex -32.763235877825835 11.276420392011737 3.0
    vertex -30.06447418271847 11.276420392011737 3.0
  endloop
endfacet
facet normal -0.0 -1.0 -5.624866287554862e-33
  outer loop
    vertex -32.763235877825835 11.276420392011737 3.0
    vertex -30.06447418271847 11.276420392011737 3.9999999999999982
    vertex -32.763235877825835 11.276420392011737 3.9999999999999982
  endloop
endfacet
facet normal -0.0 -1.0 -5.624866287554862e-33
  outer loop
    vertex -32.763235877825835 11.276420392011737 3.9999999999999982
    vertex -33.76323587782581 11.276420392011737 3.0
    vertex -32.763235877825835 11.276420392011737 3.0
  endloop
endfacet
facet normal -0.0 -1.0 -5.624866287554862e-33
  outer loop
    vertex -33.76323587782581 11.276420392011737 3.0
    vertex -32.763235877825835 11.276420392011737 3.9999999999999982
    vertex -33.76323587782581 11.276420392011737 3.9999999999999982
  endloop
endfacet
facet normal 0.8903020699354746 -0.45537042533371597 4.115709044751343e-33
  outer loop
    vertex -33.76323587782581 11.276420392011737 3.0
    vertex -33.9136447852432 10.982353508963056 3.9999999999999982
    vertex -33.9136447852432 10.982353508963056 3.0
  endloop
endfacet
facet normal 0.8903020699354746 -0.45537042533371597 4.115709044751343e-33
  outer loop
    vertex -33.9136447852432 10.982353508963056 3.9999999999999982
    vertex -33.76323587782581 11.276420392011737 3.0
    vertex -33.76323587782581 11.276420392011737 3.9999999999999982
  endloop
endfacet
facet normal 0.926110838073947 -0.37725152829640257 4.823676772052113e-33
  outer loop
    vertex -33.9136447852432 10.982353508963056 3.0
    vertex -34.03825101137442 10.67645898540012 3.9999999999999982
    vertex -34.03825101137442 10.67645898540012 3.0
  endloop
endfacet
facet normal 0.926110838073947 -0.37725152829640257 4.823676772052113e-33
  outer loop
    vertex -34.03825101137442 10.67645898540012 3.9999999999999982
    vertex -33.9136447852432 10.982353508963056 3.0
    vertex -33.9136447852432 10.982353508963056 3.9999999999999982
  endloop
endfacet
facet normal 0.9550804351584492 -0.2963466928743215 5.496022466657504e-33
  outer loop
    vertex -34.03825101137442 10.67645898540012 3.0
    vertex -34.13613436042882 10.36099580036203 3.9999999999999982
    vertex -34.13613436042882 10.36099580036203 3.0
  endloop
endfacet
facet normal 0.9550804351584492 -0.2963466928743215 5.496022466657504e-33
  outer loop
    vertex -34.13613436042882 10.36099580036203 3.9999999999999982
    vertex -34.03825101137442 10.67645898540012 3.0
    vertex -34.03825101137442 10.67645898540012 3.9999999999999982
  endloop
endfacet
facet normal 0.9769969256408788 -0.2132533875188646 6.1277809699477616e-33
  outer loop
    vertex -34.13613436042882 10.36099580036203 3.0
    vertex -34.20657198051858 10.038293595825792 3.9999999999999982
    vertex -34.20657198051858 10.038293595825792 3.0
  endloop
endfacet
facet normal 0.9769969256408788 -0.2132533875188646 6.1277809699477616e-33
  outer loop
    vertex -34.20657198051858 10.038293595825792 3.9999999999999982
    vertex -34.13613436042882 10.36099580036203 3.0
    vertex -34.13613436042882 10.36099580036203 3.9999999999999982
  endloop
endfacet
facet normal 0.9963075850250352 -0.08585566971133884 6.989202600568603e-33
  outer loop
    vertex -34.20657198051858 10.038293595825792 3.0
    vertex -34.26323587782583 9.380740392011738 3.9999999999999982
    vertex -34.26323587782583 9.380740392011738 3.0
  endloop
endfacet
facet normal 0.9963075850250352 -0.08585566971133884 6.989202600568603e-33
  outer loop
    vertex -34.26323587782583 9.380740392011738 3.9999999999999982
    vertex -34.20657198051858 10.038293595825792 3.0
    vertex -34.20657198051858 10.038293595825792 3.9999999999999982
  endloop
endfacet
facet normal 0.9963075850250352 0.08585566971133884 7.955055924878113e-33
  outer loop
    vertex -34.26323587782583 9.380740392011738 3.0
    vertex -34.20657198051858 8.723187188197686 3.9999999999999982
    vertex -34.20657198051858 8.723187188197686 3.0
  endloop
endfacet
facet normal 0.9963075850250352 0.08585566971133884 7.955055924878113e-33
  outer loop
    vertex -34.20657198051858 8.723187188197686 3.9999999999999982
    vertex -34.26323587782583 9.380740392011738 3.0
    vertex -34.26323587782583 9.380740392011738 3.9999999999999982
  endloop
endfacet
facet normal 0.9769969256408794 0.21325338751886289 8.526824550271224e-33
  outer loop
    vertex -34.20657198051858 8.723187188197686 3.0
    vertex -34.13613436042882 8.400484983661444 3.9999999999999982
    vertex -34.13613436042882 8.400484983661444 3.0
  endloop
endfacet
facet normal 0.9769969256408794 0.21325338751886289 8.526824550271224e-33
  outer loop
    vertex -34.13613436042882 8.400484983661444 3.9999999999999982
    vertex -34.20657198051858 8.723187188197686 3.0
    vertex -34.20657198051858 8.723187188197686 3.9999999999999982
  endloop
endfacet
facet normal 0.9550804351584455 0.29634669287433363 8.829843511011835e-33
  outer loop
    vertex -34.13613436042882 8.400484983661444 3.0
    vertex -34.03825101137442 8.085021798623368 3.9999999999999982
    vertex -34.03825101137442 8.085021798623368 3.0
  endloop
endfacet
facet normal 0.9550804351584455 0.29634669287433363 8.829843511011835e-33
  outer loop
    vertex -34.03825101137442 8.085021798623368 3.9999999999999982
    vertex -34.13613436042882 8.400484983661444 3.0
    vertex -34.13613436042882 8.400484983661444 3.9999999999999982
  endloop
endfacet
facet normal 0.9261108380739519 0.37725152829639064 9.067655578938051e-33
  outer loop
    vertex -34.03825101137442 8.085021798623368 3.0
    vertex -33.9136447852432 7.779127275060421 3.9999999999999982
    vertex -33.9136447852432 7.779127275060421 3.0
  endloop
endfacet
facet normal 0.9261108380739519 0.37725152829639064 9.067655578938051e-33
  outer loop
    vertex -33.9136447852432 7.779127275060421 3.9999999999999982
    vertex -34.03825101137442 8.085021798623368 3.0
    vertex -34.03825101137442 8.085021798623368 3.9999999999999982
  endloop
endfacet
facet normal 0.8903020699354763 0.4553704253337125 9.238504552369613e-33
  outer loop
    vertex -33.9136447852432 7.779127275060421 3.0
    vertex -33.76323587782581 7.485060392011737 3.9999999999999982
    vertex -33.76323587782581 7.485060392011737 3.0
  endloop
endfacet
facet normal 0.8903020699354763 0.4553704253337125 9.238504552369613e-33
  outer loop
    vertex -33.76323587782581 7.485060392011737 3.9999999999999982
    vertex -33.9136447852432 7.779127275060421 3.0
    vertex -33.9136447852432 7.779127275060421 3.9999999999999982
  endloop
endfacet
facet normal 0.0 1.0 5.624866287554862e-33
  outer loop
    vertex -33.76323587782581 7.485060392011737 3.9999999999999982
    vertex -32.763235877825835 7.485060392011737 3.0
    vertex -33.76323587782581 7.485060392011737 3.0
  endloop
endfacet
facet normal 0.0 1.0 5.624866287554862e-33
  outer loop
    vertex -32.763235877825835 7.485060392011737 3.0
    vertex -33.76323587782581 7.485060392011737 3.9999999999999982
    vertex -32.763235877825835 7.485060392011737 3.9999999999999982
  endloop
endfacet
facet normal 0.0 1.0 5.624866287554862e-33
  outer loop
    vertex -32.763235877825835 7.485060392011737 3.9999999999999982
    vertex -30.034917348743885 7.485060392011737 3.0
    vertex -32.763235877825835 7.485060392011737 3.0
  endloop
endfacet
facet normal 0.0 1.0 5.624866287554862e-33
  outer loop
    vertex -30.034917348743885 7.485060392011737 3.0
    vertex -32.763235877825835 7.485060392011737 3.9999999999999982
    vertex -30.034917348743885 7.485060392011737 3.9999999999999982
  endloop
endfacet
facet normal 0.7933533402912424 0.6087614290087112 9.374210249759154e-33
  outer loop
    vertex -30.034917348743885 7.485060392011737 3.0
    vertex -29.93940878785812 7.360591212141852 3.9999999999999982
    vertex -29.93940878785812 7.360591212141852 3.0
  endloop
endfacet
facet normal 0.7933533402912424 0.6087614290087112 9.374210249759154e-33
  outer loop
    vertex -29.93940878785812 7.360591212141852 3.9999999999999982
    vertex -30.034917348743885 7.485060392011737 3.0
    vertex -30.034917348743885 7.485060392011737 3.9999999999999982
  endloop
endfacet
facet normal 0.6087614290087215 0.7933533402912346 9.028108643516378e-33
  outer loop
    vertex -29.93940878785812 7.360591212141852 3.9999999999999982
    vertex -29.34207978350592 6.902244546399808 3.0
    vertex -29.93940878785812 7.360591212141852 3.0
  endloop
endfacet
facet normal 0.6087614290087215 0.7933533402912346 9.028108643516378e-33
  outer loop
    vertex -29.34207978350592 6.902244546399808 3.0
    vertex -29.93940878785812 7.360591212141852 3.9999999999999982
    vertex -29.34207978350592 6.902244546399808 3.9999999999999982
  endloop
endfacet
facet normal 0.382683432365089 0.9238795325112871 8.066756352872911e-33
  outer loop
    vertex -29.34207978350592 6.902244546399808 3.9999999999999982
    vertex -28.646475425057293 6.614115787084552 3.0
    vertex -29.34207978350592 6.902244546399808 3.0
  endloop
endfacet
facet normal 0.382683432365089 0.9238795325112871 8.066756352872911e-33
  outer loop
    vertex -28.646475425057293 6.614115787084552 3.0
    vertex -29.34207978350592 6.902244546399808 3.9999999999999982
    vertex -28.646475425057293 6.614115787084552 3.9999999999999982
  endloop
endfacet
facet normal 0.13052619222005418 0.99144486137381 6.555667947726366e-33
  outer loop
    vertex -28.646475425057293 6.614115787084552 3.9999999999999982
    vertex -27.899999999999995 6.515840432988143 3.0
    vertex -28.646475425057293 6.614115787084552 3.0
  endloop
endfacet
facet normal 0.13052619222005418 0.99144486137381 6.555667947726366e-33
  outer loop
    vertex -27.899999999999995 6.515840432988143 3.0
    vertex -28.646475425057293 6.614115787084552 3.9999999999999982
    vertex -27.899999999999995 6.515840432988143 3.9999999999999982
  endloop
endfacet
facet normal -0.1305261922200439 0.9914448613738115 4.5978216056958145e-33
  outer loop
    vertex -27.899999999999995 6.515840432988143 3.9999999999999982
    vertex -27.153524574942676 6.614115787084546 3.0
    vertex -27.899999999999995 6.515840432988143 3.0
  endloop
endfacet
facet normal -0.1305261922200439 0.9914448613738115 4.5978216056958145e-33
  outer loop
    vertex -27.153524574942676 6.614115787084546 3.0
    vertex -27.899999999999995 6.515840432988143 3.9999999999999982
    vertex -27.153524574942676 6.614115787084546 3.9999999999999982
  endloop
endfacet
facet normal -0.38268343236509167 0.923879532511286 2.3266413194964325e-33
  outer loop
    vertex -27.153524574942676 6.614115787084546 3.9999999999999982
    vertex -26.457920216494056 6.902244546399802 3.0
    vertex -27.153524574942676 6.614115787084546 3.0
  endloop
endfacet
facet normal -0.38268343236509167 0.923879532511286 2.3266413194964325e-33
  outer loop
    vertex -26.457920216494056 6.902244546399802 3.0
    vertex -27.153524574942676 6.614115787084546 3.9999999999999982
    vertex -26.457920216494056 6.902244546399802 3.9999999999999982
  endloop
endfacet
endsolid e39 floor mat holder 3D_v2_support
